<?xml version="1.0" encoding="UTF-8"?>
<svg width="512" height="512" viewBox="0 0 512 512" fill="none" xmlns="http://www.w3.org/2000/svg">
  <circle cx="256" cy="256" r="256" fill="#000000"/>
  <path fill-rule="evenodd" clip-rule="evenodd" d="M256 128C187.307 128 128 187.307 128 256C128 324.693 187.307 384 256 384C324.693 384 384 324.693 384 256C384 187.307 324.693 128 256 128ZM220 208C220 190.327 234.327 176 252 176H260C277.673 176 292 190.327 292 208V240C292 257.673 277.673 272 260 272H252C234.327 272 220 257.673 220 240V208Z" fill="#38BDF8"/>
</svg>